<?xml version="1.0" encoding="UTF-8"?>
<svg id="Layer_2" data-name="Layer 2" xmlns="http://www.w3.org/2000/svg" viewBox="0 0 115.25 132.9">
  <defs>
    <style>
      .cls-1, .cls-2 {
        fill: #e9d8a6;
        stroke: #e9d8a6;
      }

      .cls-2 {
        stroke-miterlimit: 10;
      }
    </style>
  </defs>
  <g id="Layer_1-2" data-name="Layer 1">
    <g>
      <path class="cls-2" d="m111.32,97.07c-8.77,17.13-21.99,26.3-39.67,27.56.2,1.77.07,3.6-.39,5.56-.2.86-.56,1.53-1.02,2.07,8.75-1.05,16.74-3.8,23.94-8.27,9.42-5.84,16.24-13.77,20.47-23.79l-3.33-3.12Z"/>
      <path class="cls-2" d="m107.13,1.79c-1.29,2.65-3.55,3.97-6.77,3.97-2.08,0-5.84-.64-11.28-1.93-9.67-2.22-17.65-3.33-23.95-3.33C46.36.5,30.82,7.07,18.5,20.21,8.23,31.17,2.26,44.56.56,60.34c6.31-.08,12.59-.28,18.82.4.21-16.57,4.39-29.89,12.55-39.94,8.38-10.31,19.73-15.47,34.05-15.47,11.03,0,19.86,2.76,26.48,8.27,6.63,5.52,11.44,14.11,14.45,25.79h3.76V1.79h-3.54Z"/>
    </g>
    <path class="cls-1" d="m21.62,103.12h-5.1v17.33c0,3.73.53,6.33,1.58,7.8,1.05,1.47,2.93,2.21,5.61,2.21v1.83H1.04v-1.83c2.79,0,4.68-.73,5.67-2.2.98-1.47,1.48-4.07,1.48-7.8v-39.51c0-3.73-.48-6.3-1.45-7.71-.97-1.42-2.87-2.12-5.69-2.12v-1.83h25.83c6.37,0,11.47,1.55,15.28,4.65,3.81,3.1,5.72,7.04,5.72,11.84,0,7.73-4.33,12.89-13,15.47,1.9,1.22,3.76,2.89,5.57,5.02,1.81,2.13,4.19,5.67,7.13,10.62,3.3,5.49,5.87,9.09,7.73,10.8,1.86,1.71,3.78,2.64,5.78,2.78v1.83h-12.89c-2.65-3.19-5.85-7.87-9.61-14.04-4.01-6.49-7.15-10.64-9.43-12.43-2.28-1.79-4.79-2.69-7.55-2.69Zm1.5-31.42h-6.61v28.79h7.73c4.62,0,8.25-1.32,10.88-3.97,2.63-2.65,3.95-6.16,3.95-10.53s-1.46-7.71-4.38-10.34-6.78-3.95-11.57-3.95Z"/>
  </g>
</svg>